<?xml version="1.0" encoding="UTF-8" standalone="no"?>
<!-- Created with Inkscape (http://www.inkscape.org/) -->

<svg
   xmlns:dc="http://purl.org/dc/elements/1.1/"
   xmlns:cc="http://creativecommons.org/ns#"
   xmlns:rdf="http://www.w3.org/1999/02/22-rdf-syntax-ns#"
   xmlns:svg="http://www.w3.org/2000/svg"
   xmlns="http://www.w3.org/2000/svg"
   xmlns:sodipodi="http://sodipodi.sourceforge.net/DTD/sodipodi-0.dtd"
   xmlns:inkscape="http://www.inkscape.org/namespaces/inkscape"
   id="svg2"
   version="1.1"
   inkscape:version="0.48.3.1 r9886"
   width="1087.795"
   height="779.5325"
   xml:space="preserve"
   sodipodi:docname="icones_whoowns.svg"><metadata
     id="metadata8"><rdf:RDF><cc:Work
         rdf:about=""><dc:format>image/svg+xml</dc:format><dc:type
           rdf:resource="http://purl.org/dc/dcmitype/StillImage" /><dc:title></dc:title></cc:Work></rdf:RDF></metadata><defs
     id="defs6"><clipPath
       clipPathUnits="userSpaceOnUse"
       id="clipPath16"><path
         d="m 0,623.626 870.236,0 L 870.236,0 0,0 0,623.626 z"
         id="path18" /></clipPath></defs><sodipodi:namedview
     pagecolor="#ffffff"
     bordercolor="#666666"
     borderopacity="1"
     objecttolerance="10"
     gridtolerance="10"
     guidetolerance="10"
     inkscape:pageopacity="0"
     inkscape:pageshadow="2"
     inkscape:window-width="640"
     inkscape:window-height="480"
     id="namedview4"
     showgrid="false"
     inkscape:zoom="0.30274557"
     inkscape:cx="543.89753"
     inkscape:cy="389.76624"
     inkscape:window-x="638"
     inkscape:window-y="25"
     inkscape:window-maximized="0"
     inkscape:current-layer="g10" /><g
     id="g10"
     inkscape:groupmode="layer"
     inkscape:label="icones_rede de poder"
     transform="matrix(1.25,0,0,-1.25,0,779.5325)"><g
       id="g20"
       transform="translate(291.6719,311.8135)"
       style="fill:#aa0000"
       inkscape:export-filename="/home/dtygel/grit/proprietariosdobrasil.org.br/wordpress/wp-content/plugins/whoowns/images/personFocus_16.png"
       inkscape:export-xdpi="7.9099998"
       inkscape:export-ydpi="7.9099998"><path
         d="m 0,0 c 0,-40.198 -32.587,-72.784 -72.785,-72.784 -40.197,0 -72.784,32.586 -72.784,72.784 0,40.198 32.587,72.785 72.784,72.785 C -32.587,72.785 0,40.198 0,0"
         style="fill:#aa0000;fill-opacity:1;fill-rule:nonzero;stroke:none"
         id="path22"
         inkscape:connector-curvature="0" /></g><g
       id="g24"
       transform="translate(496.2383,311.8135)"
       inkscape:export-filename="/home/dtygel/eita/Dropbox/EITA/Projetos/Proprietarios do Brasil/2013 Novo site da campanha/stateFocus_48.png"
       inkscape:export-xdpi="23.74"
       inkscape:export-ydpi="23.74"
       style="fill:#008000"><path
         d="m 0,0 c 0,-40.198 -32.587,-72.784 -72.785,-72.784 -40.197,0 -72.784,32.586 -72.784,72.784 0,40.198 32.587,72.785 72.784,72.785 C -32.587,72.785 0,40.198 0,0"
         style="fill:#008000;fill-opacity:1;fill-rule:nonzero;stroke:none"
         id="path26"
         inkscape:connector-curvature="0" /></g><g
       id="g28"
       transform="translate(679.8096,311.8135)"
       inkscape:export-filename="/home/dtygel/eita/Dropbox/EITA/Projetos/Proprietarios do Brasil/2013 Novo site da campanha/private-enterpriseUltController_48.png"
       inkscape:export-xdpi="23.74"
       inkscape:export-ydpi="23.74"
       style="fill:#000080"><path
         d="m 0,0 c 0,-40.198 -32.587,-72.784 -72.785,-72.784 -40.197,0 -72.784,32.586 -72.784,72.784 0,40.198 32.587,72.785 72.784,72.785 C -32.587,72.785 0,40.198 0,0"
         style="fill:#000080;fill-opacity:1;fill-rule:nonzero;stroke:none"
         id="path30"
         inkscape:connector-curvature="0" /></g><g
       id="g32"
       transform="translate(252.1299,302.4316)"
       inkscape:export-filename="/home/dtygel/grit/proprietariosdobrasil.org.br/wordpress/wp-content/plugins/whoowns/images/personFocus_48.png"
       inkscape:export-xdpi="23.74"
       inkscape:export-ydpi="23.74"><path
         d="m 0,0 c -0.885,13.49 -12.977,9.659 -22.164,9.659 l -11.119,-10.649 5.748,-20.469 -5.748,-5.806 -5.559,4.509 5.409,21.908 -10.965,10.505 C -61.546,11.071 -66.712,7.041 -66.712,-2.634 l 0,-26.608 66.939,0 L 0,0 z"
         style="fill:#ffffff;fill-opacity:1;fill-rule:nonzero;stroke:none"
         id="path34"
         inkscape:connector-curvature="0" /></g><g
       id="g36"
       transform="translate(218.8008,360.521)"
       inkscape:export-filename="/home/dtygel/grit/proprietariosdobrasil.org.br/wordpress/wp-content/plugins/whoowns/images/personFocus_48.png"
       inkscape:export-xdpi="23.74"
       inkscape:export-ydpi="23.74"><path
         d="m 0,0 c 12.304,0 22.279,-9.955 22.279,-22.234 0,-12.279 -9.975,-22.234 -22.279,-22.234 -12.304,0 -22.279,9.955 -22.279,22.234 C -22.279,-9.955 -12.304,0 0,0"
         style="fill:#ffffff;fill-opacity:1;fill-rule:nonzero;stroke:none"
         id="path38"
         inkscape:connector-curvature="0" /></g><g
       id="g40"
       transform="translate(396.9463,321.6338)"
       inkscape:export-filename="/home/dtygel/eita/Dropbox/EITA/Projetos/Proprietarios do Brasil/2013 Novo site da campanha/state_16x16.png"
       inkscape:export-xdpi="7.9099998"
       inkscape:export-ydpi="7.9099998"><path
         d="m 0,0 5.581,0 0,-39.063 8.371,0 0,33.482 8.37,0 0,-33.482 8.37,0 0,33.482 8.371,0 0,-33.482 8.371,0 0,39.063 5.581,0 c 1.541,0 2.791,1.249 2.791,2.79 0,0.93 -0.462,1.75 -1.16,2.255 l 0,0.007 -0.041,0.027 C 54.582,5.095 54.557,5.11 54.533,5.126 l -26.631,15.013 0,4.398 c 4.918,-2.461 8.967,1.778 15.348,-0.772 l 0,9.717 c -6.384,2.551 -10.431,-1.688 -15.348,0.772 l 0,0.623 c 0,0.772 -0.623,1.396 -1.395,1.396 -0.77,0 -1.395,-0.624 -1.395,-1.396 l 0,-14.738 L -1.518,5.127 C -1.542,5.111 -1.567,5.096 -1.591,5.08 L -1.63,5.053 -1.629,5.046 C -2.329,4.54 -2.79,3.721 -2.79,2.79 -2.791,1.249 -1.541,0 0,0"
         style="fill:#ffffff;fill-opacity:1;fill-rule:nonzero;stroke:none"
         id="path42"
         inkscape:connector-curvature="0" /></g><g
       id="g44"
       transform="translate(399.7368,279.7803)"
       inkscape:export-filename="/home/dtygel/eita/Dropbox/EITA/Projetos/Proprietarios do Brasil/2013 Novo site da campanha/state_16x16.png"
       inkscape:export-xdpi="7.9099998"
       inkscape:export-ydpi="7.9099998"><path
         d="m 0,0 -5.581,-5.579 58.596,0 L 47.434,0 0,0 z"
         style="fill:#ffffff;fill-opacity:1;fill-rule:nonzero;stroke:none"
         id="path46"
         inkscape:connector-curvature="0" /></g><path
       d="m 468.097,303.498 -5.58,0 0,8.369 5.58,0 0,-8.369 z m 0,-13.951 -5.58,0 0,8.369 5.58,0 0,-8.369 z m -9.764,13.951 -5.581,0 0,8.369 5.581,0 0,-8.369 z m 0,-13.951 -5.581,0 0,8.369 5.581,0 0,-8.369 z m -11.162,29.296 0,-36.273 1.156,0 0.816,-0.818 5.581,-5.58 1.972,-1.973 16.982,0 0,44.644 -26.507,0 z"
       style="fill:#ffffff;fill-opacity:1;fill-rule:nonzero;stroke:none"
       id="path48"
       inkscape:connector-curvature="0"
       inkscape:export-filename="/home/dtygel/eita/Dropbox/EITA/Projetos/Proprietarios do Brasil/2013 Novo site da campanha/state_16x16.png"
       inkscape:export-xdpi="7.9099998"
       inkscape:export-ydpi="7.9099998" /><path
       d="m 394.156,303.498 -5.581,0 0,8.369 5.581,0 0,-8.369 z m 0,-13.951 -5.581,0 0,8.369 5.581,0 0,-8.369 z m -9.766,13.951 -5.579,0 0,8.369 5.58,0 0,-8.369 -0.001,0 z m 0,-13.951 -5.579,0 0,8.369 5.58,0 0,-8.369 -0.001,0 z m 14.192,-6.977 1.155,0 0,36.272 -26.508,0 0,-44.643 16.981,0 1.973,1.973 5.581,5.58 0.818,0.818 z"
       style="fill:#ffffff;fill-opacity:1;fill-rule:nonzero;stroke:none"
       id="path50"
       inkscape:connector-curvature="0"
       inkscape:export-filename="/home/dtygel/eita/Dropbox/EITA/Projetos/Proprietarios do Brasil/2013 Novo site da campanha/state_16x16.png"
       inkscape:export-xdpi="7.9099998"
       inkscape:export-ydpi="7.9099998" /><path
       d="m 628.966,329.049 -10.97,0 0,16.456 10.97,0 0,-16.456 z m 0,-27.426 -10.97,0 0,16.456 10.97,0 0,-16.456 z m -16.456,27.426 -10.97,0 0,16.456 10.97,0 0,-16.456 z m 0,-27.426 -10.97,0 0,16.456 10.97,0 0,-16.456 z m -16.455,27.426 -10.971,0 0,16.456 10.971,0 0,-16.456 z m 0,-27.426 -10.971,0 0,16.456 10.971,0 0,-16.456 z m -16.456,52.109 0,-82.278 21.941,0 0,16.456 10.97,0 0,-16.456 21.94,0 0,82.278 -54.851,0 z"
       style="fill:#ffffff;fill-opacity:1;fill-rule:nonzero;stroke:none"
       id="path52"
       inkscape:connector-curvature="0"
       inkscape:export-filename="/home/dtygel/eita/Dropbox/EITA/Projetos/Proprietarios do Brasil/2013 Novo site da campanha/private-enterprise_16x16.png"
       inkscape:export-xdpi="7.9099998"
       inkscape:export-ydpi="7.9099998" /></g></svg>